<svg width="250" height="31" viewBox="0 0 250 31" fill="none" xmlns="http://www.w3.org/2000/svg">
<path d="M0 26.7425L12.3084 1.09594H19.5822L22.0069 8.84868L26.2836 1.05803L32.7325 0.887433L39.7875 28.8087L30.5941 29.6616L28.8261 22.5913L26.7214 15.7674L20.3736 22.1364L15.5244 14.8765L9.68167 28.8087L0 26.7425Z" fill="#D1201F"/>
<path d="M56.052 0.925344L66.946 27.6903L56.5235 29.5479L55.6984 22.6671L47.3301 22.4397L45.4274 29.7754L35.3922 27.7661L49.1485 1.70251L56.052 0.925344ZM50.9165 11.1044L49.5021 15.066L54.7723 15.2177L53.56 11.2181L50.9165 11.1044Z" fill="#D1201F"/>
<path d="M80.3481 1.02012L86.7296 6.2518L87.3189 15.2935L83.7325 19.8049L90.114 26.136L82.6212 29.7754L74.7917 22.2501L75.9703 29.7375H68.0398L66.0361 2.25222L80.3481 1.02012ZM74.7917 9.03823L74.5896 14.5542L76.6943 14.8765L78.799 11.4456L74.7917 9.03823Z" fill="#D1201F"/>
<path d="M90.2312 1.02012L100.94 1.07699L99.2393 29.7185L91.1236 29.3963L90.2312 1.02012Z" fill="#D1201F"/>
<path d="M121.027 1.24758L128.536 11.7678L126.398 25.6242L112.776 29.6237L101.916 18.8381L103.532 6.68777L111.648 0.887433L121.027 1.24758ZM113.669 11.0285L111.917 15.4451L114.948 17.7387L118.164 16.4308L117.979 12.109L113.669 11.0285Z" fill="#D1201F"/>
<path d="M149.768 0.811612L154.381 8.62121L147.798 10.403L144.481 8.54539L139.059 11.3697L138.823 17.9852L144.026 22.2311L147.747 18.1747L154.516 18.5728L150.795 27.387L144.43 30.0976L138.217 28.9982L132.442 23.0652L130.438 14.7059L133.536 5.74L142.612 0.0913086L149.768 0.811612Z" fill="#D1201F"/>
<path d="M169.956 1.02012L176.337 6.2518L176.926 15.2935L173.34 19.8049L179.721 26.136L172.229 29.7754L164.399 22.2501L165.578 29.7375H157.647L155.644 2.25222L169.956 1.02012ZM164.399 9.03823L164.197 14.5542L166.302 14.8765L168.407 11.4456L164.399 9.03823Z" fill="#D1201F"/>
<path d="M182.129 1.24758L187.82 8.07151L193.157 0.470415L200.717 6.87732L192.467 14.9523L194.824 28.9224L185.058 28.5054V16.1086L176.471 6.87732L182.129 1.24758Z" fill="#D1201F"/>
<path d="M217.15 0.963254L223.229 5.66418L223.7 17.1511L217.571 23.8424L209.944 24.3731V29.8512H201.912L203.192 0.963254H217.15ZM211.358 9.8154L211.122 14.5163L213.396 14.8765L216.292 11.0285L211.358 9.8154Z" fill="#D1201F"/>
<path d="M224.525 0.887433L250 1.39923V13.0378L241.379 11.4456L243.77 29.7375H231.428L233.28 11.4456L224.525 10.9527V0.887433Z" fill="#D1201F"/>
</svg>
